# xmcd
#
# Track frame offsets:
#	150
#	12946
#	29688
#	43943
#	59159
#	73950
#	89354
#	108935
#	123827
#	142195
#	155416
#	170072
#
# Disc length: 2514 seconds
#
# Revision: 1
# Processed by: cddbd v1.5.2PL0 Copyright (c) Steve Scherf et al.
# Submitted via: audiograbber 1.83.01
#
DISCID=b509d00c
DTITLE=Ralph Parker - A High Price For Low Living
DYEAR=2007
DGENRE=Country
TTITLE0=A High Price For Low Living
TTITLE1=Somebody Gonna Get Hurt
TTITLE2=Friends Don´t Drive Friends To Drinking
TTITLE3=Some Fools
TTITLE4=Burying Bones By The Dozen
TTITLE5=Sweet Perfume
TTITLE6=I´ve Had A Few
TTITLE7=Thinking Bout The Good Times
TTITLE8=Angels Don´t Stay
TTITLE9=Crossing My T´s
TTITLE10=An Old Valentine
TTITLE11=Part Time Lover
EXTD=
EXTT0=
EXTT1=
EXTT2=
EXTT3=
EXTT4=
EXTT5=
EXTT6=
EXTT7=
EXTT8=
EXTT9=
EXTT10=
EXTT11=
PLAYORDER=
